<svg width="40" height="37" viewBox="0 0 40 37" fill="none" xmlns="http://www.w3.org/2000/svg">
<path fill-rule="evenodd" clip-rule="evenodd" d="M21.1095 2.09945L26.3908 11.8487L37.5257 13.7251L39.9444 14.1327L38.2118 15.869L30.3577 23.7397L31.9633 34.6137L32.3157 37L30.1402 35.9581L19.9722 31.0887L9.80422 35.9581L7.6287 37L7.98104 34.6137L9.58665 23.7397L1.73256 15.869L0 14.1327L2.4187 13.7251L13.5536 11.8487L18.8349 2.09945L19.9722 0L21.1095 2.09945ZM26.0585 13.8209L35.7931 15.4614L28.942 22.327L28.2324 23.038L28.3792 24.0318L29.7878 33.5719L20.836 29.2849L19.9722 28.8712L19.1083 29.2849L10.1566 33.5719L11.5652 24.0318L11.7119 23.038L11.0024 22.327L4.15127 15.4614L13.8859 13.8209L14.8476 13.6588L15.3121 12.8013L19.9722 4.1989L24.6323 12.8013L25.0968 13.6588L26.0585 13.8209Z" fill="#0A3641"/>
</svg>
