<svg width="30" height="37" viewBox="0 0 30 37" fill="none" xmlns="http://www.w3.org/2000/svg">
<path fill-rule="evenodd" clip-rule="evenodd" d="M26.5202 14.8C26.5202 22.0114 21.1258 27.6 14.7774 27.6C8.42895 27.6 3.0345 22.0114 3.0345 14.8C3.0345 7.58859 8.42895 2 14.7774 2C21.1258 2 26.5202 7.58859 26.5202 14.8ZM23.328 26.3871C20.9812 28.3983 18.0096 29.6 14.7774 29.6C11.5451 29.6 8.57347 28.3983 6.22667 26.3871C4.51388 28.3237 3.25699 30.8106 2.60079 33.5821C2.33568 34.7018 2.17331 35.8482 2.11328 37H0C0.0625287 35.5999 0.254594 34.2057 0.576713 32.8452C1.31251 29.7376 2.69591 26.9367 4.57684 24.7181C2.37516 22.0937 1.0345 18.6154 1.0345 14.8C1.0345 6.62619 7.18738 0 14.7774 0C22.3673 0 28.5202 6.62619 28.5202 14.8C28.5202 18.6154 27.1796 22.0937 24.9779 24.7181C26.8933 26.9774 28.2915 29.839 29.0165 33.0106C29.3155 34.319 29.4947 35.657 29.5547 37H27.4414C27.384 35.897 27.2326 34.7988 26.9869 33.7239C26.3408 30.8974 25.0711 28.358 23.328 26.3871Z" fill="#0A3641"/>
</svg>
