<svg width="30" height="37" viewBox="0 0 30 37" fill="none" xmlns="http://www.w3.org/2000/svg">
<mask id="path-1-inside-1_2:9" fill="white">
<path fill-rule="evenodd" clip-rule="evenodd" d="M25.1545 22.2167C26.9159 19.882 27.9661 16.9399 27.9661 13.7428C27.9661 6.15288 22.0471 0 14.7458 0C7.44436 0 1.52542 6.15288 1.52542 13.7428C1.52542 17.0895 2.67618 20.1567 4.58882 22.5403C4.52316 22.6251 4.45802 22.7108 4.3934 22.7973C1.58038 26.564 0 31.6729 0 37L2 37C2 32.0591 3.46582 27.398 5.97325 24.0243C8.3072 26.1779 11.3796 27.4857 14.7458 27.4857C18.2558 27.4857 21.4464 26.0637 23.8134 23.7436C23.8775 23.826 23.941 23.9095 24.0041 23.994C26.5254 27.37 28 32.0443 28 37H30C30 31.6729 28.4196 26.564 25.6066 22.7973C25.4586 22.5992 25.3079 22.4056 25.1545 22.2167Z"/>
</mask>
<path d="M25.1545 22.2167L23.5579 21.0122L22.6151 22.2619L23.6018 23.4773L25.1545 22.2167ZM4.58882 22.5403L6.17 23.765L7.13553 22.5184L6.14872 21.2886L4.58882 22.5403ZM4.3934 22.7973L2.79094 21.6006L2.79094 21.6006L4.3934 22.7973ZM0 37H-2V39L-3.8147e-06 39L0 37ZM2 37L2 39L4 39L4 37L2 37ZM5.97325 24.0243L7.32949 22.5545L5.69482 21.0462L4.36805 22.8313L5.97325 24.0243ZM23.8134 23.7436L25.3927 22.5165L24.016 20.7446L22.4135 22.3153L23.8134 23.7436ZM24.0041 23.994L25.6066 22.7973L25.6066 22.7973L24.0041 23.994ZM28 37H26V39H28V37ZM30 37V39H32V37H30ZM25.6066 22.7973L24.0041 23.994L24.0041 23.994L25.6066 22.7973ZM25.9661 13.7428C25.9661 16.4968 25.0627 19.0177 23.5579 21.0122L26.7511 23.4212C28.7691 20.7464 29.9661 17.3831 29.9661 13.7428H25.9661ZM14.7458 2C20.8702 2 25.9661 7.18367 25.9661 13.7428H29.9661C29.9661 5.12208 23.2241 -2 14.7458 -2V2ZM3.52542 13.7428C3.52542 7.18367 8.62129 2 14.7458 2V-2C6.26744 -2 -0.474584 5.12208 -0.474584 13.7428H3.52542ZM6.14872 21.2886C4.51529 19.253 3.52542 16.6254 3.52542 13.7428H-0.474584C-0.474584 17.5536 0.837081 21.0605 3.02893 23.792L6.14872 21.2886ZM5.99585 23.994C6.05348 23.9168 6.11153 23.8405 6.17 23.765L3.00764 21.3156C2.93478 21.4097 2.86255 21.5047 2.79094 21.6006L5.99585 23.994ZM2 37C2 32.0442 3.47469 27.37 5.99586 23.994L2.79094 21.6006C-0.313927 25.7581 -2 31.3016 -2 37H2ZM2 35L3.8147e-06 35L-3.8147e-06 39L2 39L2 35ZM4.36805 22.8313C1.57107 26.5946 5.12602e-07 31.6885 0 37L4 37C4 32.4297 5.36057 28.2015 7.57844 25.2174L4.36805 22.8313ZM14.7458 25.4857C11.9109 25.4857 9.31572 24.3871 7.32949 22.5545L4.617 25.4942C7.29868 27.9686 10.8482 29.4857 14.7458 29.4857V25.4857ZM22.4135 22.3153C20.3973 24.2914 17.701 25.4857 14.7458 25.4857V29.4857C18.8106 29.4857 22.4955 27.8359 25.2134 25.172L22.4135 22.3153ZM25.6066 22.7973C25.5359 22.7026 25.4646 22.6091 25.3927 22.5165L22.2341 24.9707C22.2903 25.043 22.3462 25.1164 22.4017 25.1907L25.6066 22.7973ZM30 37C30 31.6728 28.4196 26.564 25.6066 22.7973L22.4017 25.1907C24.6312 28.1761 26 32.4158 26 37H30ZM30 35H28V39H30V35ZM24.0041 23.994C26.5253 27.37 28 32.0442 28 37H32C32 31.3016 30.3139 25.7581 27.2091 21.6006L24.0041 23.994ZM23.6018 23.4773C23.738 23.645 23.8722 23.8173 24.0041 23.994L27.2091 21.6006C27.0451 21.381 26.8778 21.1662 26.7072 20.9561L23.6018 23.4773Z" fill="#0A3641" mask="url(#path-1-inside-1_2:9)"/>
</svg>
