<svg width="24" height="24" viewBox="0 0 24 24" fill="none" xmlns="http://www.w3.org/2000/svg">
<path fill-rule="evenodd" clip-rule="evenodd" d="M16.8875 15.4733C18.2086 13.8415 19 11.7632 19 9.5C19 4.2533 14.7467 0 9.5 0C4.2533 0 0 4.2533 0 9.5C0 14.7467 4.2533 19 9.5 19C11.7631 19 13.8415 18.2086 15.4733 16.8875L21.59 23.0042C21.9805 23.3947 22.6137 23.3947 23.0042 23.0042C23.3947 22.6137 23.3947 21.9805 23.0042 21.59L16.8875 15.4733ZM9.5 17.4458C5.11165 17.4458 1.55419 13.8884 1.55419 9.5C1.55419 5.11165 5.11165 1.55418 9.5 1.55418C13.8884 1.55418 17.4458 5.11165 17.4458 9.5C17.4458 13.8884 13.8884 17.4458 9.5 17.4458Z" fill="#0A3641"/>
</svg>
