<svg width="34" height="37" viewBox="0 0 34 37" fill="none" xmlns="http://www.w3.org/2000/svg">
<path fill-rule="evenodd" clip-rule="evenodd" d="M14.7925 3.04992C15.4277 2.66224 16.0609 2.49497 16.6601 2.50012C17.2596 2.50527 17.8943 2.68368 18.5304 3.085C19.1738 3.49099 19.8114 4.12273 20.3628 4.99316C20.9138 5.86308 21.3475 6.92377 21.6079 8.11328C21.6294 8.2114 21.6496 8.31002 21.6686 8.40909H11.5977C11.6234 8.27491 11.6514 8.14157 11.6817 8.0092C11.9526 6.82556 12.3951 5.77484 12.9521 4.91743C13.5093 4.05963 14.1495 3.4423 14.7925 3.04992ZM8.88962 10.4091C8.8815 10.9104 8.89913 11.413 8.94276 11.9134L11.4333 11.6962C11.3959 11.2676 11.3816 10.8373 11.39 10.4091H21.8763C21.8854 10.8739 21.8678 11.341 21.823 11.8054L24.3114 12.0454C24.3639 11.5017 24.3855 10.9546 24.3767 10.4091H27.9665L30.918 35H2.22473L4.84831 10.4091H8.88962ZM9.06064 8.40909C9.11104 8.08675 9.17241 7.76718 9.24467 7.45145C9.57448 6.01041 10.1236 4.68236 10.8556 3.55555C11.5876 2.42865 12.4857 1.52887 13.4902 0.91591C14.4948 0.302843 15.5827 -0.0092335 16.6816 0.000208005C17.7805 0.00964948 18.8654 0.340394 19.8644 0.970676C20.8632 1.60085 21.753 2.51599 22.4747 3.65538C23.1964 4.79468 23.7334 6.13206 24.0501 7.57865C24.1102 7.85296 24.162 8.13 24.2057 8.40909H29.7408L32.9324 35L33.1724 37H31.1581H2.01135H0L0.213378 35L3.05034 8.40909H9.06064Z" fill="#0A3641"/>
</svg>
