<svg width="165" height="166" viewBox="0 0 165 166" fill="none" xmlns="http://www.w3.org/2000/svg">
<line x1="163.902" y1="0.700967" x2="2.71322" y2="164.701" stroke="#999999" stroke-width="2"/>
<line x1="162.475" y1="164.701" x2="1.28683" y2="0.700968" stroke="#999999" stroke-width="2"/>
<circle cx="83" cy="82" r="61" fill="white"/>
<path d="M83.5 73C81.8256 73 80.1677 73.3298 78.6208 73.9705C77.0739 74.6113 75.6683 75.5504 74.4844 76.7344C73.3004 77.9183 72.3613 79.3239 71.7205 80.8708C71.0798 82.4177 70.75 84.0756 70.75 85.75C70.75 87.4244 71.0798 89.0823 71.7205 90.6292C72.3613 92.1761 73.3004 93.5817 74.4844 94.7656C75.6683 95.9496 77.0739 96.8887 78.6208 97.5295C80.1677 98.1702 81.8256 98.5 83.5 98.5C86.8815 98.5 90.1245 97.1567 92.5156 94.7656C94.9067 92.3745 96.25 89.1315 96.25 85.75C96.25 82.3685 94.9067 79.1255 92.5156 76.7344C90.1245 74.3433 86.8815 73 83.5 73V73ZM117.5 60.25H107.3C106.566 60.2165 105.858 59.9694 105.262 59.5391C104.666 59.1088 104.209 58.5139 103.947 57.8275L101.307 49.9183C101.043 49.2326 100.585 48.6388 99.9887 48.2093C99.3925 47.7799 98.684 47.5334 97.95 47.5H69.05C67.6475 47.5 66.1345 48.588 65.6967 49.914L63.0533 57.8275C62.7904 58.5136 62.3332 59.1082 61.7376 59.5384C61.142 59.9687 60.4339 60.216 59.7 60.25H49.5C44.825 60.25 41 64.075 41 68.75V107C41 111.675 44.825 115.5 49.5 115.5H117.5C122.175 115.5 126 111.675 126 107V68.75C126 64.075 122.175 60.25 117.5 60.25ZM83.5 107C77.8641 107 72.4591 104.761 68.474 100.776C64.4888 96.7909 62.25 91.3859 62.25 85.75C62.25 80.1141 64.4888 74.7091 68.474 70.724C72.4591 66.7388 77.8641 64.5 83.5 64.5C89.1359 64.5 94.5409 66.7388 98.526 70.724C102.511 74.7091 104.75 80.1141 104.75 85.75C104.75 91.3859 102.511 96.7909 98.526 100.776C94.5409 104.761 89.1359 107 83.5 107ZM115.375 73.85C114.586 73.85 113.829 73.5366 113.271 72.9786C112.713 72.4207 112.4 71.664 112.4 70.875C112.4 70.086 112.713 69.3293 113.271 68.7714C113.829 68.2134 114.586 67.9 115.375 67.9C116.164 67.9 116.921 68.2134 117.479 68.7714C118.037 69.3293 118.35 70.086 118.35 70.875C118.35 71.664 118.037 72.4207 117.479 72.9786C116.921 73.5366 116.164 73.85 115.375 73.85Z" fill="#999999"/>
</svg>
